HIERARCHY
ROOT Hips
{
  OFFSET 54.3659 94.1344 17.6569
  CHANNELS 6 Xposition Yposition Zposition Zrotation Xrotation Yrotation
  JOINT spine
  {
    OFFSET 0 7.80059 0.448573
    CHANNELS 3 Zrotation Xrotation Yrotation
    JOINT spine1
    {
      OFFSET 0 10.1364 0
      CHANNELS 3 Zrotation Xrotation Yrotation
      JOINT spine2
      {
        OFFSET 0 9.71251 0
        CHANNELS 3 Zrotation Xrotation Yrotation
        JOINT Neck
        {
          OFFSET 0 24.9361 1.18887
          CHANNELS 3 Zrotation Xrotation Yrotation
          JOINT Head
          {
            OFFSET 0 7.53384 0
            CHANNELS 3 Zrotation Xrotation Yrotation
            End Site
            {
              OFFSET 0 18.2361 -6.01402
            }
          }
        }
        JOINT RightShoulder
        {
          OFFSET -4.08965 10.4888 -0.569457
          CHANNELS 3 Zrotation Xrotation Yrotation
          JOINT RightArm
          {
            OFFSET 0 13.757 0
            CHANNELS 3 Zrotation Xrotation Yrotation
            JOINT RightArmRoll
            {
              OFFSET 0 6.94478 0
              CHANNELS 3 Zrotation Xrotation Yrotation
              JOINT RightForeArm
              {
                OFFSET 0 20.2277 0
                CHANNELS 3 Zrotation Xrotation Yrotation
                JOINT RightForeArmRoll
                {
                  OFFSET 0 7.79312 0
                  CHANNELS 3 Zrotation Xrotation Yrotation
                  JOINT RightHand
                  {
                    OFFSET 0 15.6391 0
                    CHANNELS 3 Zrotation Xrotation Yrotation
                    End Site
                    {
                      OFFSET 0 0 0
                    }
                  }
                }
              }
            }
          }
        }
        JOINT LeftShoulder
        {
          OFFSET 4.08965 10.4888 -0.569457
          CHANNELS 3 Zrotation Xrotation Yrotation
          JOINT LeftArm
          {
            OFFSET 0 13.757 0
            CHANNELS 3 Zrotation Xrotation Yrotation
            JOINT LeftArmRoll
            {
              OFFSET 0 6.94478 0
              CHANNELS 3 Zrotation Xrotation Yrotation
              JOINT LeftForeArm
              {
                OFFSET 0 20.2277 0
                CHANNELS 3 Zrotation Xrotation Yrotation
                JOINT LeftForeArmRoll
                {
                  OFFSET 0 7.79312 0
                  CHANNELS 3 Zrotation Xrotation Yrotation
                  JOINT LeftHand
                  {
                    OFFSET 0 15.6391 0
                    CHANNELS 3 Zrotation Xrotation Yrotation
                    End Site
                    {
                      OFFSET 0 0 0
                    }
                  }
                }
              }
            }
          }
        }
      }
    }
  }
  JOINT RightUpLeg
  {
    OFFSET -6.91416 -1.26788 -1.06358
    CHANNELS 3 Zrotation Xrotation Yrotation
    JOINT RightUpLegRoll
    {
      OFFSET 0 18.3378 0
      CHANNELS 3 Zrotation Xrotation Yrotation
      JOINT RightLeg
      {
        OFFSET 0 -22.7085 0
        CHANNELS 3 Zrotation Xrotation Yrotation
        JOINT RightLegRoll
        {
          OFFSET 0 22.7828 0
          CHANNELS 3 Zrotation Xrotation Yrotation
          JOINT RightFoot
          {
            OFFSET 0 18.9629 0
            CHANNELS 3 Zrotation Xrotation Yrotation
            JOINT RightToeBase
            {
              OFFSET 0 15.852 0
              CHANNELS 3 Zrotation Xrotation Yrotation
              End Site
              {
                OFFSET 0.00671906 7.67701 -0.884892
              }
            }
          }
        }
      }
    }
  }
  JOINT LeftUpLeg
  {
    OFFSET 6.91416 -1.26788 -1.06358
    CHANNELS 3 Zrotation Xrotation Yrotation
    JOINT LeftUpLegRoll
    {
      OFFSET 0 18.3379 0
      CHANNELS 3 Zrotation Xrotation Yrotation
      JOINT LeftLeg
      {
        OFFSET 0 22.7084 0
        CHANNELS 3 Zrotation Xrotation Yrotation
        JOINT LeftLegRoll
        {
          OFFSET 0 22.9934 0
          CHANNELS 3 Zrotation Xrotation Yrotation
          JOINT LeftFoot
          {
            OFFSET 0 18.7522 0
            CHANNELS 3 Zrotation Xrotation Yrotation
            JOINT LeftToeBase
            {
              OFFSET 0 15.852 0
              CHANNELS 3 Zrotation Xrotation Yrotation
              End Site
              {
                OFFSET -0.030112 7.67701 -0.884893
              }
            }
          }
        }
      }
    }
  }
}
MOTION
Frames: 6
Frame Time: 0.00208333
54.5076 94.0199 16.9563 0.189228 -6.03752 -0.965378 -0.174136 -0.664118 0.303319 -0.348437 2.68596 0.628642 -0.356552 4.33098 0.635028 -2.20627 20.8798 -1.51225 10.5732 -17.9276 0.494732 80.1187 -4.1362 -4.01296 91.1934 10.4648 16.5054 6.60335e-006 -4.29124e-007 1.06841e-006 10.6716 11.7746 -2.10776 2.39376e-007 -2.96509e-006 -2.99999 8.02892 -4.9514 0.697649 -68.4537 1.99206 0.158107 -101.422 -3.81773 -18.3502 -2.01742e-005 1.09624e-006 -1.30255e-008 -4.72529 14.0647 1.7376 6.04757e-006 -3.82774e-006 3 -8.02965 -4.95141 -0.697655 174.282 -0.616963 1.11985 180 7.01587e-015 179.114 -179.778 11.6255 179.044 -2.45166e-006 -6.74663e-007 -0.0357515 -14.864 69.4455 20.5839 8.13654 25.2334 -3.48678 -179.142 -1.23795 6.52027 4.54188e-006 -4.6773e-006 -1.42926 -4.19245 -12.6777 -0.177097 -1.81564e-007 -4.47947e-006 -0.273617 24.106 71.9071 -23.6819 -8.13649 25.2327 3.48774 
54.5077 94.0171 16.945 0.189708 -6.04272 -0.954379 -0.174136 -0.665222 0.303868 -0.34732 2.68287 0.629137 -0.355446 4.32788 0.635503 -2.20199 20.9027 -1.51024 10.5713 -17.9362 0.498042 80.132 -4.1347 -4.0132 91.21 10.5403 16.4624 6.60335e-006 -4.29124e-007 1.06841e-006 10.6853 11.7592 -2.10651 2.39376e-007 -2.96509e-006 -2.99999 8.02892 -4.9514 0.697649 -68.4657 2.00385 0.153813 -101.422 -3.75833 -18.3092 -2.01742e-005 1.09624e-006 -1.30255e-008 -4.73322 14.0958 1.74082 6.04757e-006 -3.82774e-006 3 -8.02965 -4.95141 -0.697655 174.283 -0.622469 1.12182 180 7.01587e-015 179.114 -179.781 11.6255 179.044 -2.45166e-006 -6.74663e-007 -0.0357515 -14.8662 69.4452 20.5868 8.13654 25.2334 -3.48678 -179.143 -1.23143 6.52503 4.54188e-006 -4.6773e-006 -1.42951 -4.18663 -12.6924 -0.176546 -1.81564e-007 -4.47947e-006 -0.273752 24.1073 71.9135 -23.6895 -8.13649 25.2327 3.48774 
54.5106 94.0187 16.9479 0.190114 -6.04785 -0.94333 -0.174136 -0.666319 0.304432 -0.346155 2.67975 0.629628 -0.354291 4.32477 0.635972 -2.19773 20.9259 -1.50821 10.5694 -17.9448 0.501364 80.1452 -4.13321 -4.01345 91.2271 10.6159 16.4205 6.60335e-006 -4.29124e-007 1.06841e-006 10.6984 11.743 -2.10515 2.39376e-007 -2.96509e-006 -2.99999 8.02892 -4.9514 0.697649 -68.4773 2.01547 0.149548 -101.423 -3.6986 -18.2686 -2.01742e-005 1.09624e-006 -1.30255e-008 -4.74086 14.125 1.74387 6.04757e-006 -3.82774e-006 3 -8.02965 -4.95141 -0.697655 174.283 -0.627907 1.12378 180 7.01587e-015 179.114 -179.784 11.6255 179.044 -2.45166e-006 -6.74663e-007 -0.0357515 -14.8684 69.4449 20.5897 8.13654 25.2334 -3.48678 -179.144 -1.2246 6.52982 4.54188e-006 -4.6773e-006 -1.42976 -4.18072 -12.7075 -0.176001 -1.81564e-007 -4.47947e-006 -0.273884 24.1088 71.9201 -23.6974 -8.13649 25.2327 3.48774 
54.516 93.9814 16.9384 0.190469 -6.05292 -0.932247 -0.174137 -0.667411 0.305005 -0.344955 2.67663 0.630115 -0.353102 4.32164 0.636438 -2.1935 20.9491 -1.50617 10.5675 -17.9535 0.504694 80.1583 -4.13175 -4.0137 91.2446 10.6916 16.3795 6.60335e-006 -4.29124e-007 1.06841e-006 10.711 11.726 -2.10371 2.39376e-007 -2.96509e-006 -2.99999 8.02892 -4.9514 0.697649 -68.4886 2.02697 0.145304 -101.424 -3.63864 -18.2282 -2.01742e-005 1.09624e-006 -1.30255e-008 -4.7483 14.1528 1.7468 6.04757e-006 -3.82774e-006 3 -8.02965 -4.95141 -0.697655 174.284 -0.633297 1.12572 180 7.01587e-015 179.115 -179.787 11.6254 179.044 -2.45166e-006 -6.74663e-007 -0.0357515 -14.8707 69.4445 20.5928 8.13654 25.2334 -3.48678 -179.145 -1.21757 6.53463 4.54188e-006 -4.6773e-006 -1.43 -4.17475 -12.7229 -0.175461 -1.81564e-007 -4.47947e-006 -0.274013 24.1103 71.9268 -23.7054 -8.13649 25.2327 3.48774 
54.5146 93.9873 16.9342 0.190795 -6.05796 -0.921144 -0.174137 -0.6685 0.305585 -0.343735 2.67349 0.630601 -0.351894 4.31851 0.636901 -2.18927 20.9725 -1.50414 10.5656 -17.9622 0.50803 80.1714 -4.13029 -4.01395 91.2624 10.7673 16.339 6.60335e-006 -4.29124e-007 1.06841e-006 10.7233 11.7087 -2.10222 2.39376e-007 -2.96509e-006 -2.99999 8.02892 -4.9514 0.697649 -68.4997 2.0384 0.141072 -101.425 -3.57853 -18.188 -2.01742e-005 1.09624e-006 -1.30255e-008 -4.75563 14.1799 1.74966 6.04757e-006 -3.82774e-006 3 -8.02965 -4.95141 -0.697655 174.285 -0.638659 1.12766 180 7.01587e-015 179.115 -179.79 11.6253 179.045 -2.45166e-006 -6.74663e-007 -0.0357515 -14.8731 69.4442 20.5959 8.13654 25.2334 -3.48678 -179.145 -1.21041 6.53945 4.54188e-006 -4.6773e-006 -1.43024 -4.16874 -12.7384 -0.174923 -1.81564e-007 -4.47947e-006 -0.274141 24.1119 71.9336 -23.7135 -8.13649 25.2327 3.48774 
54.5165 94.0208 16.9423 0.191115 -6.06299 -0.910035 -0.174137 -0.669588 0.306165 -0.34251 2.67036 0.631086 -0.35068 4.31538 0.637364 -2.18504 20.9958 -1.50209 10.5637 -17.9708 0.511367 80.1845 -4.12883 -4.0142 91.2803 10.8431 16.2987 6.60335e-006 -4.29124e-007 1.06841e-006 10.7355 11.6914 -2.10072 2.39376e-007 -2.96509e-006 -2.99999 8.02892 -4.9514 0.697649 -68.5108 2.04981 0.136842 -101.427 -3.51836 -18.1479 -2.01742e-005 1.09624e-006 -1.30255e-008 -4.76293 14.2067 1.7525 6.04757e-006 -3.82774e-006 3 -8.02965 -4.95141 -0.697655 174.286 -0.644015 1.1296 180 7.01587e-015 179.115 -179.793 11.6252 179.045 -2.45166e-006 -6.74663e-007 -0.0357515 -14.8755 69.4438 20.599 8.13654 25.2334 -3.48678 -179.146 -1.20323 6.54427 4.54188e-006 -4.6773e-006 -1.43049 -4.16273 -12.7539 -0.174386 -1.81564e-007 -4.47947e-006 -0.274268 24.1135 71.9404 -23.7217 -8.13649 25.2327 3.48774 
